<?xml version="1.0" encoding="UTF-8" standalone="no"?><!-- Generator: Gravit.io --><svg xmlns="http://www.w3.org/2000/svg" xmlns:xlink="http://www.w3.org/1999/xlink" style="isolation:isolate" viewBox="0 0 240 240" width="240pt" height="240pt"><defs><clipPath id="_clipPath_2DjBwKfnqYfgY3i8bpL6YLHQhvIHsUX6"><rect width="240" height="240"/></clipPath></defs><g clip-path="url(#_clipPath_2DjBwKfnqYfgY3i8bpL6YLHQhvIHsUX6)"><rect x="3.75" y="3.75" width="232.5" height="232.5" transform="matrix(1,0,0,1,0,0)" fill="rgb(255,114,0)"/><path d=" M 29.612 175.954 L 29.612 61.488 L 79.331 61.488 L 79.331 61.488 Q 95.638 61.488 103.791 64.525 L 103.791 64.525 L 103.791 64.525 Q 112.744 67.883 117.7 76.196 L 117.7 76.196 L 117.7 76.196 Q 122.176 83.869 122.176 93.142 L 122.176 93.142 L 122.176 93.142 Q 122.176 110.248 108.747 118.561 L 108.747 118.561 L 108.747 118.561 Q 104.111 121.439 98.196 123.037 L 98.196 123.037 L 98.196 123.037 Q 96.117 123.677 93.879 123.997 L 93.879 123.997 L 93.879 123.997 Q 92.92 124.157 92.121 124.316 L 92.121 124.316 L 92.121 124.316 Q 91.481 124.476 90.842 124.476 L 90.842 124.476 L 90.842 124.796 L 90.842 124.796 Q 93.719 126.235 95.318 127.354 L 95.318 127.354 L 95.318 127.354 Q 98.036 128.953 100.594 131.351 L 100.594 131.351 L 100.594 131.351 Q 106.829 137.106 114.342 148.936 L 114.342 148.936 L 131.448 175.954 L 108.427 175.954 L 92.44 151.654 L 92.44 151.654 Q 81.25 134.708 76.134 130.711 L 76.134 130.711 L 76.134 130.711 Q 70.858 126.555 59.987 126.555 L 59.987 126.555 L 48.476 126.555 L 48.476 175.954 L 29.612 175.954 Z  M 48.476 77.635 L 48.476 111.047 L 73.896 111.047 L 73.896 111.047 Q 80.13 111.047 83.807 110.727 L 83.807 110.727 L 83.807 110.727 Q 89.403 110.248 93.08 108.649 L 93.08 108.649 L 93.08 108.649 Q 102.672 104.972 102.672 94.261 L 102.672 94.261 L 102.672 94.261 Q 102.672 83.39 92.76 79.713 L 92.76 79.713 L 92.76 79.713 Q 89.083 78.274 84.127 77.954 L 84.127 77.954 L 84.127 77.954 Q 82.209 77.794 79.811 77.635 L 79.811 77.635 L 48.476 77.635 Z  M 211.383 139.504 L 152.871 139.504 L 152.871 139.504 Q 153.191 150.375 158.946 157.09 L 158.946 157.09 L 158.946 157.09 Q 164.701 163.964 174.613 163.964 L 174.613 163.964 L 174.613 163.964 Q 182.767 163.964 187.722 158.688 L 187.722 158.688 L 187.722 158.688 Q 189.481 156.61 190.92 153.892 L 190.92 153.892 L 190.92 153.892 Q 191.879 151.974 192.678 149.416 L 192.678 149.416 L 210.584 152.134 L 210.584 152.134 Q 202.91 177.873 174.134 177.873 L 174.134 177.873 L 174.134 177.873 Q 152.551 177.873 142.32 162.845 L 142.32 162.845 L 142.32 162.845 Q 134.646 151.654 134.646 135.028 L 134.646 135.028 L 134.646 135.028 Q 134.646 117.122 143.439 105.132 L 143.439 105.132 L 143.439 105.132 Q 153.67 91.223 172.695 91.223 L 172.695 91.223 L 172.695 91.223 Q 192.519 91.223 202.59 104.972 L 202.59 104.972 L 202.59 104.972 Q 211.863 117.762 211.383 139.504 L 211.383 139.504 Z  M 152.871 126.874 L 193.158 126.874 L 193.158 126.874 Q 192.998 123.357 192.199 120.32 L 192.199 120.32 L 192.199 120.32 Q 191.08 116.323 189.321 113.285 L 189.321 113.285 L 189.321 113.285 Q 184.205 105.132 173.334 105.132 L 173.334 105.132 L 173.334 105.132 Q 162.143 105.132 156.708 114.564 L 156.708 114.564 L 156.708 114.564 Q 154.789 117.922 153.67 121.918 L 153.67 121.918 L 153.67 121.918 Q 153.351 123.357 153.191 124.956 L 153.191 124.956 L 153.031 126.075 L 152.871 126.874 Z " fill-rule="evenodd" fill="rgb(255,255,255)"/><path d=" M 0 0 L 240 0 L 240 240 L 0 240 L 0 0 Z  M 7.5 7.5 L 232.5 7.5 L 232.5 232.5 L 7.5 232.5 L 7.5 7.5 Z " fill-rule="evenodd" fill="rgb(255,255,255)"/></g></svg>