<?xml version="1.0" encoding="UTF-8" standalone="no"?><!-- Generator: Gravit.io --><svg xmlns="http://www.w3.org/2000/svg" xmlns:xlink="http://www.w3.org/1999/xlink" style="isolation:isolate" viewBox="0 0 260 260" width="260pt" height="260pt"><defs><clipPath id="_clipPath_AmqRX1yMrsZnyY94MPiudGaB3rjFMTY0"><rect width="260" height="260"/></clipPath></defs><g clip-path="url(#_clipPath_AmqRX1yMrsZnyY94MPiudGaB3rjFMTY0)"><rect x="0" y="0" width="260" height="260" transform="matrix(1,0,0,1,0,0)" fill="rgb(0,0,0)" fill-opacity="0.4"/><rect x="13.754" y="13.675" width="232.5" height="232.5" transform="matrix(1,0,0,1,0,0)" fill="rgb(255,114,0)"/><path d=" M 10 9.93 L 250 9.93 L 250 249.93 L 10 249.93 L 10 9.93 Z  M 17.5 17.43 L 242.5 17.43 L 242.5 242.43 L 17.5 242.43 L 17.5 17.43 Z " fill-rule="evenodd" fill="rgb(255,255,255)"/><path d=" M 39.616 185.879 L 39.616 71.413 L 89.335 71.413 L 89.335 71.413 Q 105.642 71.413 113.795 74.45 L 113.795 74.45 L 113.795 74.45 Q 122.748 77.808 127.704 86.121 L 127.704 86.121 L 127.704 86.121 Q 132.18 93.795 132.18 103.067 L 132.18 103.067 L 132.18 103.067 Q 132.18 120.173 118.751 128.486 L 118.751 128.486 L 118.751 128.486 Q 114.115 131.364 108.199 132.962 L 108.199 132.962 L 108.199 132.962 Q 106.121 133.602 103.883 133.922 L 103.883 133.922 L 103.883 133.922 Q 102.924 134.082 102.124 134.241 L 102.124 134.241 L 102.124 134.241 Q 101.485 134.401 100.845 134.401 L 100.845 134.401 L 100.845 134.721 L 100.845 134.721 Q 103.723 136.16 105.322 137.279 L 105.322 137.279 L 105.322 137.279 Q 108.04 138.878 110.598 141.276 L 110.598 141.276 L 110.598 141.276 Q 116.832 147.031 124.346 158.861 L 124.346 158.861 L 141.452 185.879 L 118.431 185.879 L 102.444 161.579 L 102.444 161.579 Q 91.253 144.633 86.138 140.636 L 86.138 140.636 L 86.138 140.636 Q 80.862 136.48 69.991 136.48 L 69.991 136.48 L 58.48 136.48 L 58.48 185.879 L 39.616 185.879 Z  M 58.48 87.56 L 58.48 120.972 L 83.899 120.972 L 83.899 120.972 Q 90.134 120.972 93.811 120.653 L 93.811 120.653 L 93.811 120.653 Q 99.407 120.173 103.084 118.574 L 103.084 118.574 L 103.084 118.574 Q 112.676 114.897 112.676 104.186 L 112.676 104.186 L 112.676 104.186 Q 112.676 93.315 102.764 89.638 L 102.764 89.638 L 102.764 89.638 Q 99.087 88.199 94.131 87.879 L 94.131 87.879 L 94.131 87.879 Q 92.213 87.719 89.815 87.56 L 89.815 87.56 L 58.48 87.56 Z  M 221.387 149.429 L 162.875 149.429 L 162.875 149.429 Q 163.195 160.3 168.95 167.015 L 168.95 167.015 L 168.95 167.015 Q 174.705 173.889 184.617 173.889 L 184.617 173.889 L 184.617 173.889 Q 192.77 173.889 197.726 168.613 L 197.726 168.613 L 197.726 168.613 Q 199.485 166.535 200.924 163.817 L 200.924 163.817 L 200.924 163.817 Q 201.883 161.899 202.682 159.341 L 202.682 159.341 L 220.588 162.059 L 220.588 162.059 Q 212.914 187.798 184.137 187.798 L 184.137 187.798 L 184.137 187.798 Q 162.555 187.798 152.323 172.77 L 152.323 172.77 L 152.323 172.77 Q 144.65 161.579 144.65 144.953 L 144.65 144.953 L 144.65 144.953 Q 144.65 127.047 153.442 115.057 L 153.442 115.057 L 153.442 115.057 Q 163.674 101.149 182.699 101.149 L 182.699 101.149 L 182.699 101.149 Q 202.522 101.149 212.594 114.897 L 212.594 114.897 L 212.594 114.897 Q 221.867 127.687 221.387 149.429 L 221.387 149.429 Z  M 162.875 136.799 L 203.162 136.799 L 203.162 136.799 Q 203.002 133.282 202.203 130.245 L 202.203 130.245 L 202.203 130.245 Q 201.084 126.248 199.325 123.21 L 199.325 123.21 L 199.325 123.21 Q 194.209 115.057 183.338 115.057 L 183.338 115.057 L 183.338 115.057 Q 172.147 115.057 166.712 124.489 L 166.712 124.489 L 166.712 124.489 Q 164.793 127.847 163.674 131.843 L 163.674 131.843 L 163.674 131.843 Q 163.354 133.282 163.195 134.881 L 163.195 134.881 L 163.035 136 L 162.875 136.799 Z " fill-rule="evenodd" fill="rgb(255,255,255)"/></g></svg>