<?xml version="1.0" encoding="UTF-8" standalone="no"?><!-- Generator: Gravit.io --><svg xmlns="http://www.w3.org/2000/svg" xmlns:xlink="http://www.w3.org/1999/xlink" style="isolation:isolate" viewBox="0 0 870.25 280.813" width="870.25pt" height="280.813pt"><defs><clipPath id="_clipPath_lCT1Y0T4gBGf4DSn8HlkPbxskDOSiWbw"><rect width="870.25" height="280.813"/></clipPath></defs><g clip-path="url(#_clipPath_lCT1Y0T4gBGf4DSn8HlkPbxskDOSiWbw)"><rect x="0" y="0" width="870.25" height="280.812" transform="matrix(1,0,0,1,0,0)" fill="rgb(0,0,0)" fill-opacity="0.4"/><rect x="24.754" y="23.675" width="232.5" height="232.5" transform="matrix(1,0,0,1,0,0)" fill="rgb(255,114,0)"/><path d=" M 21 19.93 L 261 19.93 L 261 259.93 L 21 259.93 L 21 19.93 Z  M 28.5 27.43 L 253.5 27.43 L 253.5 252.43 L 28.5 252.43 L 28.5 27.43 Z " fill-rule="evenodd" fill="rgb(255,255,255)"/><path d=" M 50.616 195.879 L 50.616 81.413 L 100.335 81.413 L 100.335 81.413 Q 116.642 81.413 124.795 84.45 L 124.795 84.45 L 124.795 84.45 Q 133.748 87.808 138.704 96.121 L 138.704 96.121 L 138.704 96.121 Q 143.18 103.795 143.18 113.067 L 143.18 113.067 L 143.18 113.067 Q 143.18 130.173 129.751 138.486 L 129.751 138.486 L 129.751 138.486 Q 125.115 141.364 119.199 142.962 L 119.199 142.962 L 119.199 142.962 Q 117.121 143.602 114.883 143.922 L 114.883 143.922 L 114.883 143.922 Q 113.924 144.082 113.124 144.241 L 113.124 144.241 L 113.124 144.241 Q 112.485 144.401 111.845 144.401 L 111.845 144.401 L 111.845 144.721 L 111.845 144.721 Q 114.723 146.16 116.322 147.279 L 116.322 147.279 L 116.322 147.279 Q 119.04 148.878 121.598 151.276 L 121.598 151.276 L 121.598 151.276 Q 127.832 157.031 135.346 168.861 L 135.346 168.861 L 152.452 195.879 L 129.431 195.879 L 113.444 171.579 L 113.444 171.579 Q 102.253 154.633 97.138 150.636 L 97.138 150.636 L 97.138 150.636 Q 91.862 146.48 80.991 146.48 L 80.991 146.48 L 69.48 146.48 L 69.48 195.879 L 50.616 195.879 Z  M 69.48 97.56 L 69.48 130.972 L 94.899 130.972 L 94.899 130.972 Q 101.134 130.972 104.811 130.653 L 104.811 130.653 L 104.811 130.653 Q 110.407 130.173 114.084 128.574 L 114.084 128.574 L 114.084 128.574 Q 123.676 124.897 123.676 114.186 L 123.676 114.186 L 123.676 114.186 Q 123.676 103.315 113.764 99.638 L 113.764 99.638 L 113.764 99.638 Q 110.087 98.199 105.131 97.879 L 105.131 97.879 L 105.131 97.879 Q 103.213 97.719 100.815 97.56 L 100.815 97.56 L 69.48 97.56 Z  M 232.387 159.429 L 173.875 159.429 L 173.875 159.429 Q 174.195 170.3 179.95 177.015 L 179.95 177.015 L 179.95 177.015 Q 185.705 183.889 195.617 183.889 L 195.617 183.889 L 195.617 183.889 Q 203.77 183.889 208.726 178.613 L 208.726 178.613 L 208.726 178.613 Q 210.485 176.535 211.924 173.817 L 211.924 173.817 L 211.924 173.817 Q 212.883 171.899 213.682 169.341 L 213.682 169.341 L 231.588 172.059 L 231.588 172.059 Q 223.914 197.798 195.137 197.798 L 195.137 197.798 L 195.137 197.798 Q 173.555 197.798 163.323 182.77 L 163.323 182.77 L 163.323 182.77 Q 155.65 171.579 155.65 154.953 L 155.65 154.953 L 155.65 154.953 Q 155.65 137.047 164.442 125.057 L 164.442 125.057 L 164.442 125.057 Q 174.674 111.149 193.699 111.149 L 193.699 111.149 L 193.699 111.149 Q 213.522 111.149 223.594 124.897 L 223.594 124.897 L 223.594 124.897 Q 232.867 137.687 232.387 159.429 L 232.387 159.429 Z  M 173.875 146.799 L 214.162 146.799 L 214.162 146.799 Q 214.002 143.282 213.203 140.245 L 213.203 140.245 L 213.203 140.245 Q 212.084 136.248 210.325 133.21 L 210.325 133.21 L 210.325 133.21 Q 205.209 125.057 194.338 125.057 L 194.338 125.057 L 194.338 125.057 Q 183.147 125.057 177.712 134.489 L 177.712 134.489 L 177.712 134.489 Q 175.793 137.847 174.674 141.843 L 174.674 141.843 L 174.674 141.843 Q 174.354 143.282 174.195 144.881 L 174.195 144.881 L 174.035 146 L 173.875 146.799 Z " fill-rule="evenodd" fill="rgb(255,255,255)"/><path d=" M 287.828 195.897 L 287.828 82.501 L 305.408 82.501 L 305.408 195.897 L 287.828 195.897 Z  M 322.354 155.828 L 322.354 155.828 Q 322.354 134.289 334.707 122.411 L 334.707 122.411 L 334.707 122.411 Q 345.635 111.958 362.739 111.958 L 362.739 111.958 L 362.739 111.958 Q 380.794 111.958 391.88 123.836 L 391.88 123.836 L 391.88 123.836 Q 402.967 135.556 402.967 154.72 L 402.967 154.72 L 402.967 154.72 Q 402.967 174.2 391.564 186.078 L 391.564 186.078 L 391.564 186.078 Q 380.319 197.798 362.581 197.798 L 362.581 197.798 L 362.581 197.798 Q 346.11 197.798 335.182 187.978 L 335.182 187.978 L 335.182 187.978 Q 322.354 176.575 322.354 155.828 L 322.354 155.828 Z  M 340.409 154.878 L 340.409 154.878 Q 340.409 169.765 348.011 177.367 L 348.011 177.367 L 348.011 177.367 Q 354.029 183.386 362.739 183.386 L 362.739 183.386 L 362.739 183.386 Q 366.224 183.386 369.55 182.277 L 369.55 182.277 L 369.55 182.277 Q 373.667 180.851 376.835 178.001 L 376.835 178.001 L 376.835 178.001 Q 384.912 170.399 384.912 154.403 L 384.912 154.403 L 384.912 154.403 Q 384.912 140.783 378.102 133.181 L 378.102 133.181 L 378.102 133.181 Q 372.084 126.37 362.739 126.37 L 362.739 126.37 L 362.739 126.37 Q 353.87 126.37 347.852 132.389 L 347.852 132.389 L 347.852 132.389 Q 340.409 139.991 340.409 154.878 L 340.409 154.878 Z  M 433.375 138.882 L 416.904 135.873 L 416.904 135.873 Q 420.546 125.103 426.723 119.877 L 426.723 119.877 L 426.723 119.877 Q 435.909 111.958 453.488 111.958 L 453.488 111.958 L 453.488 111.958 Q 471.86 111.958 480.095 120.035 L 480.095 120.035 L 480.095 120.035 Q 486.272 126.054 486.272 143.158 L 486.272 143.158 L 486.114 172.458 L 486.114 172.458 Q 486.272 182.119 487.856 188.454 L 487.856 188.454 L 487.856 188.454 Q 488.489 190.829 489.44 192.888 L 489.44 192.888 L 490.231 194.472 L 490.865 195.897 L 472.969 195.897 L 472.969 195.897 Q 470.91 190.671 470.118 186.236 L 470.118 186.236 L 470.118 186.236 Q 469.326 187.028 468.534 187.662 L 468.534 187.662 L 468.534 187.662 Q 467.425 188.612 466.317 189.562 L 466.317 189.562 L 466.317 189.562 Q 463.624 191.779 460.615 193.363 L 460.615 193.363 L 460.615 193.363 Q 452.221 197.798 442.56 197.798 L 442.56 197.798 L 442.56 197.798 Q 429.574 197.798 421.972 191.146 L 421.972 191.146 L 421.972 191.146 Q 414.528 184.653 414.528 173.883 L 414.528 173.883 L 414.528 173.883 Q 414.528 160.421 426.881 153.611 L 426.881 153.611 L 426.881 153.611 Q 431.157 151.235 437.176 149.81 L 437.176 149.81 L 437.176 149.81 Q 439.235 149.176 441.769 148.701 L 441.769 148.701 L 443.986 148.385 L 445.728 148.068 L 445.728 148.068 Q 451.271 147.276 456.973 146.167 L 456.973 146.167 L 456.973 146.167 Q 464.575 144.584 468.692 143.158 L 468.692 143.158 L 468.692 143.158 Q 469.009 139.04 468.534 135.556 L 468.534 135.556 L 468.534 135.556 Q 467.742 129.855 461.407 127.321 L 461.407 127.321 L 461.407 127.321 Q 459.19 126.37 456.497 126.054 L 456.497 126.054 L 456.497 126.054 Q 455.389 125.895 454.439 125.737 L 454.439 125.737 L 452.855 125.737 L 452.855 125.737 Q 443.036 125.737 438.601 129.38 L 438.601 129.38 L 438.601 129.38 Q 435.275 132.072 433.375 138.882 L 433.375 138.882 Z  M 468.692 155.511 L 468.692 155.511 Q 462.516 157.887 449.212 160.104 L 449.212 160.104 L 446.678 160.579 L 443.986 161.213 L 443.986 161.213 Q 440.66 162.005 438.601 163.113 L 438.601 163.113 L 438.601 163.113 Q 432.583 166.281 432.583 172.616 L 432.583 172.616 L 432.583 172.616 Q 432.583 177.051 435.592 180.376 L 435.592 180.376 L 435.592 180.376 Q 439.551 184.811 447.47 184.811 L 447.47 184.811 L 447.47 184.811 Q 460.14 184.811 466 174.992 L 466 174.992 L 466 174.992 Q 468.692 170.399 468.692 155.511 L 468.692 155.511 Z  M 577.654 82.501 L 577.654 195.897 L 561.183 195.897 L 561.183 184.653 L 560.867 184.653 L 560.867 184.653 Q 555.64 193.046 546.771 196.214 L 546.771 196.214 L 546.771 196.214 Q 543.762 197.164 540.595 197.639 L 540.595 197.639 L 540.595 197.639 Q 539.328 197.798 538.219 197.798 L 538.219 197.798 L 536.794 197.798 L 536.794 197.798 Q 521.273 197.798 511.454 185.286 L 511.454 185.286 L 511.454 185.286 Q 502.11 173.249 502.11 155.036 L 502.11 155.036 L 502.11 155.036 Q 502.11 134.448 512.087 122.886 L 512.087 122.886 L 512.087 122.886 Q 521.431 111.958 536.477 111.958 L 536.477 111.958 L 536.477 111.958 Q 551.206 111.958 559.758 123.203 L 559.758 123.203 L 560.075 123.203 L 560.075 82.501 L 577.654 82.501 Z  M 540.595 125.737 L 540.595 125.737 Q 527.608 125.737 522.698 138.407 L 522.698 138.407 L 522.698 138.407 Q 521.115 142.683 520.481 148.226 L 520.481 148.226 L 520.481 148.226 Q 520.323 150.127 520.164 152.027 L 520.164 152.027 L 520.164 154.561 L 520.164 154.561 Q 520.164 170.874 527.766 178.317 L 527.766 178.317 L 527.766 178.317 Q 530.775 181.01 534.576 182.435 L 534.576 182.435 L 534.576 182.435 Q 537.427 183.386 540.595 183.386 L 540.595 183.386 L 540.595 183.386 Q 543.604 183.386 546.455 182.435 L 546.455 182.435 L 546.455 182.435 Q 550.256 181.168 553.106 178.476 L 553.106 178.476 L 553.106 178.476 Q 560.708 171.349 560.708 155.511 L 560.708 155.511 L 560.708 155.511 Q 560.708 141.416 555.165 133.497 L 555.165 133.497 L 555.165 133.497 Q 549.78 125.737 540.595 125.737 L 540.595 125.737 Z  M 599.51 195.897 L 599.51 113.859 L 617.09 113.859 L 617.09 195.897 L 599.51 195.897 Z  M 599.51 100.397 L 599.51 82.501 L 617.09 82.501 L 617.09 100.397 L 599.51 100.397 Z  M 709.106 195.897 L 693.11 195.897 L 693.11 183.702 L 692.793 183.702 L 692.793 183.702 Q 687.092 192.096 678.223 195.58 L 678.223 195.58 L 678.223 195.58 Q 674.897 196.847 671.413 197.481 L 671.413 197.481 L 671.413 197.481 Q 669.987 197.639 668.562 197.798 L 668.562 197.798 L 666.503 197.798 L 666.503 197.798 Q 659.059 197.798 652.408 194.63 L 652.408 194.63 L 652.408 194.63 Q 645.597 191.304 642.747 186.078 L 642.747 186.078 L 642.747 186.078 Q 638.787 178.476 638.787 165.172 L 638.787 165.172 L 638.787 113.859 L 656.367 113.859 L 656.367 155.511 L 656.367 155.511 Q 656.367 172.141 659.059 176.734 L 659.059 176.734 L 659.059 176.734 Q 661.277 180.535 665.394 182.119 L 665.394 182.119 L 665.394 182.119 Q 666.978 182.91 668.879 183.069 L 668.879 183.069 L 668.879 183.069 Q 670.304 183.386 671.888 183.386 L 671.888 183.386 L 671.888 183.386 Q 677.272 183.386 682.024 180.693 L 682.024 180.693 L 682.024 180.693 Q 686.458 178.159 688.359 174.516 L 688.359 174.516 L 688.359 174.516 Q 691.526 168.023 691.526 153.294 L 691.526 153.294 L 691.526 113.859 L 709.106 113.859 L 709.106 195.897 Z  M 730.328 195.897 L 730.328 113.859 L 746.324 113.859 L 746.324 125.103 L 746.641 125.103 L 746.641 125.103 Q 755.668 111.958 771.664 111.958 L 771.664 111.958 L 773.565 111.958 L 773.565 111.958 Q 774.99 112.117 776.257 112.275 L 776.257 112.275 L 776.257 112.275 Q 779.583 112.75 782.592 113.859 L 782.592 113.859 L 782.592 113.859 Q 791.144 117.343 794.787 125.737 L 794.787 125.737 L 795.42 124.945 L 796.054 123.995 L 796.054 123.995 Q 796.846 122.886 797.796 121.778 L 797.796 121.778 L 797.796 121.778 Q 800.013 119.244 802.706 117.343 L 802.706 117.343 L 802.706 117.343 Q 810.149 111.958 820.285 111.958 L 820.285 111.958 L 820.285 111.958 Q 836.756 111.958 842.933 124.153 L 842.933 124.153 L 842.933 124.153 Q 844.992 128.429 845.625 133.972 L 845.625 133.972 L 845.625 133.972 Q 845.942 136.031 846.1 138.249 L 846.1 138.249 L 846.1 195.897 L 828.521 195.897 L 828.521 143 L 828.362 139.516 L 828.362 139.516 Q 827.887 135.556 826.937 133.022 L 826.937 133.022 L 826.937 133.022 Q 823.928 126.054 815.217 126.054 L 815.217 126.054 L 815.217 126.054 Q 810.624 126.054 806.507 128.429 L 806.507 128.429 L 806.507 128.429 Q 802.23 130.805 800.33 134.448 L 800.33 134.448 L 800.33 134.448 Q 797.004 140.783 797.004 152.027 L 797.004 152.027 L 797.004 195.897 L 779.424 195.897 L 779.424 143.317 L 779.266 139.832 L 779.266 139.832 Q 778.791 136.031 777.841 133.181 L 777.841 133.181 L 777.841 133.181 Q 774.99 126.054 766.596 126.054 L 766.596 126.054 L 766.596 126.054 Q 761.686 126.054 757.252 128.429 L 757.252 128.429 L 757.252 128.429 Q 753.134 130.805 751.234 134.289 L 751.234 134.289 L 751.234 134.289 Q 747.908 140.783 747.908 154.561 L 747.908 154.561 L 747.908 195.897 L 730.328 195.897 Z " fill-rule="evenodd" fill="rgb(255,255,255)"/></g></svg>