<?xml version="1.0" encoding="UTF-8" standalone="no"?>
<!-- Copyright 2000-2021 JetBrains s.r.o. Use of this source code is governed by the Apache 2.0 license that can be found in the LICENSE file. -->

<svg
   width="16"
   height="16"
   viewBox="0 0 16 16"
   version="1.1"
   id="svg12"
   sodipodi:docname="timing.svg"
   inkscape:version="1.1.2 (1:1.1+202202050950+0a00cf5339)"
   xmlns:inkscape="http://www.inkscape.org/namespaces/inkscape"
   xmlns:sodipodi="http://sodipodi.sourceforge.net/DTD/sodipodi-0.dtd"
   xmlns="http://www.w3.org/2000/svg"
   xmlns:svg="http://www.w3.org/2000/svg">
  <defs
     id="defs16" />
  <sodipodi:namedview
     id="namedview14"
     pagecolor="#ffffff"
     bordercolor="#666666"
     borderopacity="1.0"
     inkscape:pageshadow="2"
     inkscape:pageopacity="0.0"
     inkscape:pagecheckerboard="0"
     showgrid="false"
     inkscape:zoom="54.5625"
     inkscape:cx="7.9908362"
     inkscape:cy="8"
     inkscape:window-width="2137"
     inkscape:window-height="1924"
     inkscape:window-x="1699"
     inkscape:window-y="234"
     inkscape:window-maximized="1"
     inkscape:current-layer="svg12" />
  <g
     fill="#6E6E6E"
     fill-rule="evenodd"
     transform="translate(1 1)"
     id="g10"
     style="fill:#ff7200;fill-opacity:1.0">
    <path
       d="M11.9497475,11.9497475 C9.21607743,14.6834175 4.78392257,14.6834175 2.05025253,11.9497475 C-0.68341751,9.21607743 -0.68341751,4.78392257 2.05025253,2.05025253 C4.78392257,-0.68341751 9.21607743,-0.68341751 11.9497475,2.05025253 C14.6834175,4.78392257 14.6834175,9.21607743 11.9497475,11.9497475 Z M6.99999976,12.1999996 C9.87188036,12.1999996 12.1999996,9.87188036 12.1999996,6.99999976 C12.1999996,4.12811917 9.87188036,1.79999995 6.99999976,1.79999995 C4.12811917,1.79999995 1.79999995,4.12811917 1.79999995,6.99999976 C1.79999995,9.87188036 4.12811917,12.1999996 6.99999976,12.1999996 Z"
       id="path2"
       style="fill:#ff7200;fill-opacity:1.0" />
    <g
       transform="translate(5.7 3.7)"
       id="g8"
       style="fill:#ff7200;fill-opacity:1.0">
      <rect
         width="1.6"
         height="4"
         x=".5"
         id="rect4"
         style="fill:#ff7200;fill-opacity:1.0" />
      <rect
         width="1.6"
         height="4"
         x="1.797"
         y="2.502"
         transform="rotate(125 2.597 4.502)"
         id="rect6"
         style="fill:#ff7200;fill-opacity:1.0" />
    </g>
  </g>
</svg>
